<?xml version="1.0" encoding="utf-8"?>
<!-- Svg Vector Icons : http://www.sfont.cn -->
<!DOCTYPE svg PUBLIC "-//W3C//DTD SVG 1.1//EN" "http://www.w3.org/Graphics/SVG/1.1/DTD/svg11.dtd">
<svg version="1.1" xmlns="http://www.w3.org/2000/svg" xmlns:xlink="http://www.w3.org/1999/xlink" x="0px" y="0px" viewBox="0 0 1000 1000" enable-background="new 0 0 1000 1000" xml:space="preserve">
<metadata> Svg Vector Icons : http://www.sfont.cn </metadata>
<g><path d="M409.1,100.3c0-49.9,40.4-90.3,90.3-90.3c49.9,0,90.3,40.4,90.3,90.3c0,49.9-40.4,90.3-90.3,90.3C449.5,190.7,409.1,150.2,409.1,100.3L409.1,100.3z M678.7,472.1h-88.9v-71.7h-0.7v-47.8c0-52.6-40.3-95.6-89.6-95.6c-49.3,0-89.6,43-89.6,95.6v47.8v71.7h-89.6v39.2h143.4V990h71.7V511.4h143.4L678.7,472.1L678.7,472.1z M728.2,100.3c0-49.9,40.4-90.3,90.3-90.3c49.9,0,90.3,40.4,90.3,90.3c0,49.9-40.4,90.3-90.3,90.3C768.6,190.7,728.2,150.2,728.2,100.3z M907.8,400.4v-47.8c0-52.6-40.3-95.6-89.6-95.6c-49.3,0-89.6,43-89.6,95.6v47.8V496v61.6h-49.9h-69v97.8v319.1h-55.4V990h43.4h80.9v-15.6V689h49.9h180.3V557.6V400.4h-0.4H907.8z M91.1,100.3c0-49.9,40.4-90.3,90.3-90.3c49.9,0,90.3,40.4,90.3,90.3c0,49.9-40.4,90.3-90.3,90.3C131.6,190.7,91.1,150.2,91.1,100.3z M390.3,655.3v-97.8h-69h-49.9V496v-95.6v-47.8c0-52.6-40.3-95.6-89.6-95.6c-49.3,0-89.6,43-89.6,95.6v47.8h-0.7h-0.4v157.1V689h180.3h49.9v285.4V990h80.9h43.4v-15.6h-55.4L390.3,655.3z"/></g>
</svg>