<?xml version="1.0" encoding="utf-8"?>
<!-- Svg Vector Icons : http://www.sfont.cn -->
<!DOCTYPE svg PUBLIC "-//W3C//DTD SVG 1.1//EN" "http://www.w3.org/Graphics/SVG/1.1/DTD/svg11.dtd">
<svg version="1.1" xmlns="http://www.w3.org/2000/svg" xmlns:xlink="http://www.w3.org/1999/xlink" x="0px" y="0px" viewBox="0 0 1000 1000" enable-background="new 0 0 1000 1000" xml:space="preserve">
<metadata> Svg Vector Icons : http://www.sfont.cn </metadata>
<g><path d="M587,47.2c-23.1-24-54-37.2-87-37.2s-63.9,13.2-87,37.2L41.4,434.1C3.1,474,8,508.5,14.3,522.9c4.5,10.2,19.8,38.3,63.7,38.3h54.5v297.6C132.5,926.4,181,990,250,990h62.5h95.7v-69.9v-245c0-33.8-5.1-52.6,29.4-52.6H500h62.5c34.5,0,29.4,18.8,29.4,52.6v245V990h95.7H750c68.9,0,117.4-63.6,117.4-131.2V561.3H922c43.9,0,59.2-28.1,63.7-38.3c6.3-14.4,11.3-48.9-27.1-88.9L587,47.2z"/></g>
</svg>