<?xml version="1.0" encoding="utf-8"?>
<!-- Svg Vector Icons : http://www.sfont.cn -->
<!DOCTYPE svg PUBLIC "-//W3C//DTD SVG 1.1//EN" "http://www.w3.org/Graphics/SVG/1.1/DTD/svg11.dtd">
<svg version="1.1" xmlns="http://www.w3.org/2000/svg" xmlns:xlink="http://www.w3.org/1999/xlink" x="0px" y="0px" viewBox="0 0 1000 1000" enable-background="new 0 0 1000 1000" xml:space="preserve">
<metadata> Svg Vector Icons : http://www.sfont.cn </metadata>
<g><path d="M585.9,790.9l-52.5-31.5l54.4-91.7c-10-1.6-20-3-30.1-4.3c-3.5-0.4-7.4-0.5-10.6-2c-16.1-6.9-25.2-23.1-22.9-40.4c1.4-10.5,4.8-20.2,9.9-29.3c3.5-6.6,8.5-12.4,11.7-19.2c2.3-5,6.4-8,10.3-11.4c12.1-10.5,23.1-21.8,33-34.2c23.9-30,41.3-63.7,54.1-99.7c0.9-2.7,1.8-5.1,2.8-8c1.2,0.4,2.1,0.5,2.8,0.9c8.3,3.5,16.3,2.5,23.2-2.5c5.3-3.6,10.5-8,14.2-13.1c18.4-26.1,24.3-55,17.7-86.2c-1.4-7.1-4.4-13.7-9-19.2c-5.7-6.7-12.6-10.1-21.5-9c-1.2,0.2-2.7,0-4.3,0v-3.4c-0.2-19.3,0.4-38.8-0.5-58.4c-1.1-26.3-5.5-52-13.5-77.2c-9.8-30.5-24.5-58.2-47.4-81.2c-25-25.4-55.7-40.8-89.9-49.8c-32.6-8.7-66-11-99.7-9.9c-25.5,0.9-50.6,4.6-74.9,12.4c-62.3,19.7-106.2,59.4-130.9,120.1c-12.1,29.6-17.7,60.7-20,92.4c-1.6,21.3-1.1,42.6,0.2,63.9v4.6c-0.7,0-0.9,0.2-1.1,0.2c-0.5,0-1.2,0.2-1.8,0c-11-2.1-19.3,2.3-25,11.2c-3.4,5.3-6.4,11.5-7.6,17.7c-6.4,30.3-0.4,58.5,17,84.1c2.7,3.9,6.2,7.5,9.9,10.6c11.7,9.8,21.6,10.3,35.1,2c0.9,2.5,1.6,4.3,2.1,6c3.2,7.4,6,14.7,9.2,22c19,41.9,44.3,79.3,80.5,108.6c0.9,0.7,2.1,1.4,2.1,2.1c0.2,4.1,3.4,6.2,5.3,9.2c5.7,8.7,10.8,17.7,14.4,27.5c2.7,7.4,4.6,15.3,4.3,23.2c-0.5,17.7-14.4,33.2-31.2,35.1c-40.4,4.6-80.2,12.4-119.4,23.6c-33.9,9.6-66.7,21.6-97.6,39c-18.1,10.3-35.1,22.2-49.7,37.1c-11.7,12.1-21.5,25.5-27.5,41.3c-1.1,2.8-1.8,6.2-1.8,9.4c-0.2,14,0,28,0,42c0,2,0.2,3.9,0.4,6.4h534.3l-10.4-17.6l50-32.1c6.4-4.1,8.6-11.4,5.6-18C588.9,792.7,588.3,792.4,585.9,790.9z"/><path d="M963.9,840.2c-19-35.7-7.1-78.5,26.1-99.8l-38-64.2c-9.5,7.1-23.8,9.5-35.7,9.5c-40.4,0-71.3-33.3-71.3-73.7h-73.7c0,11.9-2.4,26.2-9.5,35.7c-19,35.7-64.2,45.2-99.9,26.2l-38,64.2c11.9,7.1,19,14.3,26.2,26.2c19,35.7,7.1,78.5-26.2,99.8l38,64.2c9.5-7.1,23.8-9.5,35.7-9.5c40.4,0,71.3,33.3,71.3,71.3h73.7c0-11.9,2.4-23.8,9.5-35.7c19-35.7,64.2-45.2,99.9-26.2l38-64.2C980.5,861.6,971,852.1,963.9,840.2z M806.9,880.6c-55.1,0-94.5-59.2-67.2-111.5c10.9-20.8,31.3-35.8,54.5-39.6c48.7-7.9,88.8,30.7,88.8,75C883,845,849.7,880.6,806.9,880.6z"/></g>
</svg>