<?xml version="1.0" encoding="utf-8"?>
<!-- Svg Vector Icons : http://www.sfont.cn -->
<!DOCTYPE svg PUBLIC "-//W3C//DTD SVG 1.1//EN" "http://www.w3.org/Graphics/SVG/1.1/DTD/svg11.dtd">
<svg version="1.1" xmlns="http://www.w3.org/2000/svg" xmlns:xlink="http://www.w3.org/1999/xlink" x="0px" y="0px" viewBox="0 0 1000 1000" enable-background="new 0 0 1000 1000" xml:space="preserve">
<metadata> Svg Vector Icons : http://www.sfont.cn </metadata>
<g><g><g><circle cx="323.7" cy="111.4" r="101.4"/><path d="M427.5,400.3c33,49.9,70.4,105.8,124,148.3c7.2,5.7,15.9,8.5,24.4,8.5c11.6,0,23.1-5.1,30.9-14.9c13.5-17,10.7-41.8-6.4-55.3c-44.9-35.6-77.7-85.3-109.4-133.3c-31.4-47.5-61-92.4-99.9-116.2c-1.7-1-3.5-1.8-5.3-2.5c-11.3-7.5-24-13.1-36.9-16.3l-25.3,25.4l-24.5-25.7c-0.1,0-0.2,0-0.3,0.1c-13.2,3.1-26,8.8-37.5,16.4c-1.9,0.8-3.9,1.7-5.7,2.9c-54.5,34.3-142.8,120.5-123,312.6c2.1,20.3,19.2,35.3,39.1,35.3c1.3,0,2.7-0.1,4.1-0.2c21.6-2.2,37.3-21.6,35.1-43.2c-5.5-53.5-1-95.9,8.9-129.6v118c0,10.6,2.1,20.5,5.7,29.6c-0.3,2-0.5,4.1-0.5,6.2l0,377c0,25.7,20.8,46.5,46.5,46.5c25.7,0,46.5-20.8,46.5-46.5l0-323.5c1.8,0.1,3.7,0.2,5.5,0.2c0.4,0,0.7,0,1.1,0l0,323.3c0,25.7,20.8,46.5,46.5,46.5l0,0c25.7,0,46.5-20.8,46.5-46.5l0-374.7c6.1-11.3,9.6-24.1,9.6-38.1L427.5,400.3L427.5,400.3z M323.5,444.8L299,411.4l24.4-163.5h0.5l24.4,163.5L324,444.8H323.5z"/><path d="M852,797.4l-23-8.5c1.8-16.8,1.2-33.9-1.9-50.9l22.2-10.2c13.9-6.4,20-22.9,13.6-36.8l-13-28.2c-6.4-13.9-22.9-20-36.8-13.6l-22.3,10.3c-10.9-13.5-23.5-25-37.4-34.6l8.5-23c5.3-14.3-2.1-30.3-16.4-35.6l-29.1-10.7c-13.9-5.1-30.5,2.5-35.6,16.4l-8.5,23c-16.8-1.8-33.9-1.2-50.9,1.9l-10.3-22.2c-6.4-13.9-22.9-20-36.8-13.6l-28.2,13c-13.9,6.4-20,22.9-13.6,36.8l10.3,22.2c-13.5,10.9-25,23.5-34.6,37.4l-23-8.5c-13.9-5.2-30.5,2.5-35.6,16.4L439,707.5c-2.6,7-2.3,14.5,0.8,21.2c3.1,6.7,8.6,11.9,15.6,14.4l23,8.5c-1.8,16.8-1.2,33.9,1.9,50.9l-22.2,10.2c-13.9,6.4-20,22.9-13.6,36.8l13,28.2c6.4,13.9,22.9,20,36.8,13.6l22.2-10.2c10.9,13.5,23.5,25,37.4,34.6l-8.5,23c-2.6,7-2.3,14.5,0.8,21.2c3.1,6.7,8.6,11.9,15.6,14.4l29.1,10.7c6.9,2.6,14.4,2.3,21.2-0.8c6.7-3.1,11.8-8.7,14.4-15.6l8.5-23c16.8,1.8,33.9,1.2,50.9-1.9l10.2,22.3c6.4,13.9,22.9,19.9,36.8,13.6l28.2-13c13.9-6.4,20-22.9,13.6-36.8l-10.2-22.2c13.5-10.9,25-23.5,34.5-37.4l23,8.5c7,2.6,14.5,2.3,21.2-0.8c6.7-3.1,11.8-8.6,14.4-15.6l10.8-29.1C873.7,818.6,866.3,802.7,852,797.4z M699.6,869.8c-14.5,6.7-29.9,10.1-45.8,10.1c-42.7,0-81.8-25-99.6-63.8c-25.3-54.9-1.2-120.1,53.7-145.4c14.5-6.7,29.9-10.1,45.8-10.1c42.7,0,81.8,25,99.6,63.8C778.5,779.3,754.5,844.5,699.6,869.8z"/></g></g><g></g><g></g><g></g><g></g><g></g><g></g><g></g><g></g><g></g><g></g><g></g><g></g><g></g><g></g><g></g></g>
</svg>